{"asset":{"generator":"3D Builder","version":"2.0"},"scene":0,"scenes":[{"nodes":[0]}],"nodes":[{"children":[1,2,3,4,5,6,7,8,9,10,11,12]},{"mesh":0,"matrix":[1,0,0,0,0,-1.1920928955078125E-7,-0.99999988079071045,0,0,0.99999988079071045,-1.1920928955078125E-7,0,0,0,0,1]},{"mesh":1,"matrix":[1,0,0,0,0,-1.1920928955078125E-7,-0.99999988079071045,0,0,0.99999988079071045,-1.1920928955078125E-7,0,0,0,0,1]},{"mesh":2,"matrix":[1,0,0,0,0,-1.1920928955078125E-7,-0.99999988079071045,0,0,0.99999988079071045,-1.1920928955078125E-7,0,0,0,0,1]},{"mesh":3,"matrix":[1,0,0,0,0,-1.1920928955078125E-7,-0.99999988079071045,0,0,0.99999988079071045,-1.1920928955078125E-7,0,0,0,0,1]},{"mesh":4,"matrix":[1,0,0,0,0,-1.1920928955078125E-7,-0.99999988079071045,0,0,0.99999988079071045,-1.1920928955078125E-7,0,0,0,0,1]},{"mesh":5,"matrix":[1,0,0,0,0,-1.1920928955078125E-7,-0.99999988079071045,0,0,0.99999988079071045,-1.1920928955078125E-7,0,0,0,0,1]},{"mesh":6,"matrix":[1,0,0,0,0,-1.1920928955078125E-7,-0.99999988079071045,0,0,0.99999988079071045,-1.1920928955078125E-7,0,0,0,0,1]},{"mesh":7,"matrix":[1,0,0,0,0,-1.1920928955078125E-7,-0.99999988079071045,0,0,0.99999988079071045,-1.1920928955078125E-7,0,0,0,0,1]},{"mesh":8,"matrix":[1,0,0,0,0,-1.1920928955078125E-7,-0.99999988079071045,0,0,0.99999988079071045,-1.1920928955078125E-7,0,0,0,0,1]},{"mesh":9,"matrix":[1,0,0,0,0,-1.1920928955078125E-7,-0.99999988079071045,0,0,0.99999988079071045,-1.1920928955078125E-7,0,0,0,0,1]},{"mesh":10,"matrix":[1,0,0,0,0,-1.1920928955078125E-7,-0.99999988079071045,0,0,0.99999988079071045,-1.1920928955078125E-7,0,0,0,0,1]},{"mesh":11,"matrix":[1,0,0,0,0,-1.1920928955078125E-7,-0.99999988079071045,0,0,0.99999988079071045,-1.1920928955078125E-7,0,0,0,0,1]}],"meshes":[{"primitives":[{"attributes":{"POSITION":0,"TEXCOORD_0":1},"mode":4,"indices":2,"material":0}]},{"primitives":[{"attributes":{"POSITION":3,"TEXCOORD_0":4},"mode":4,"indices":5,"material":0}]},{"primitives":[{"attributes":{"POSITION":6,"TEXCOORD_0":7},"mode":4,"indices":8,"material":0}]},{"primitives":[{"attributes":{"POSITION":9,"TEXCOORD_0":10},"mode":4,"indices":11,"material":0}]},{"primitives":[{"attributes":{"POSITION":12,"TEXCOORD_0":13},"mode":4,"indices":14,"material":0}]},{"primitives":[{"attributes":{"POSITION":15,"TEXCOORD_0":16},"mode":4,"indices":17,"material":0}]},{"primitives":[{"attributes":{"POSITION":18,"TEXCOORD_0":19},"mode":4,"indices":20,"material":0}]},{"primitives":[{"attributes":{"POSITION":21,"TEXCOORD_0":22},"mode":4,"indices":23,"material":0}]},{"primitives":[{"attributes":{"POSITION":24,"TEXCOORD_0":25},"mode":4,"indices":26,"material":0}]},{"primitives":[{"attributes":{"POSITION":27,"TEXCOORD_0":28},"mode":4,"indices":29,"material":0}]},{"primitives":[{"attributes":{"POSITION":30,"TEXCOORD_0":31},"mode":4,"indices":32,"material":0}]},{"primitives":[{"attributes":{"POSITION":33,"TEXCOORD_0":34},"mode":4,"indices":35,"material":0}]}],"materials":[{"pbrMetallicRoughness":{"baseColorFactor":[1,1,1,1],"metallicFactor":0,"roughnessFactor":1,"baseColorTexture":{"index":0,"texCoord":0}},"alphaMode":"OPAQUE"}],"textures":[{"source":0,"sampler":0}],"images":[{"uri":"loading.png"}],"samplers":[{"magFilter":9729,"wrapS":10497,"wrapT":10497}],"accessors":[{"bufferView":0,"byteOffset":0,"count":20,"componentType":5126,"type":"VEC3","min":[0.019303997978568077,0,0],"max":[0.023367999121546745,0.01066800020635128,0.0055880001746118069]},{"bufferView":1,"byteOffset":0,"count":20,"componentType":5126,"type":"VEC2"},{"bufferView":2,"byteOffset":0,"count":108,"componentType":5125,"type":"SCALAR"},{"bufferView":3,"byteOffset":0,"count":22,"componentType":5126,"type":"VEC3","min":[0.025653999298810959,0.0025400009471923113,0],"max":[0.033019997179508209,0.012192001566290855,0.0055880001746118069]},{"bufferView":4,"byteOffset":0,"count":22,"componentType":5126,"type":"VEC2"},{"bufferView":5,"byteOffset":0,"count":120,"componentType":5125,"type":"SCALAR"},{"bufferView":6,"byteOffset":0,"count":22,"componentType":5126,"type":"VEC3","min":[0.0093980003148317337,0.0025400009471923113,0],"max":[0.017017999663949013,0.012446001172065735,0.0055880001746118069]},{"bufferView":7,"byteOffset":0,"count":22,"componentType":5126,"type":"VEC2"},{"bufferView":8,"byteOffset":0,"count":120,"componentType":5125,"type":"SCALAR"},{"bufferView":9,"byteOffset":0,"count":20,"componentType":5126,"type":"VEC3","min":[0.0030479996930807829,0.0096520008519291878,0],"max":[0.011938000097870827,0.016764000058174133,0.0055880001746118069]},{"bufferView":10,"byteOffset":0,"count":20,"componentType":5126,"type":"VEC2"},{"bufferView":11,"byteOffset":0,"count":108,"componentType":5125,"type":"SCALAR"},{"bufferView":12,"byteOffset":0,"count":22,"componentType":5126,"type":"VEC3","min":[0.030479997396469116,0.0093980003148317337,0],"max":[0.040131997317075729,0.017017999663949013,0.0055880001746118069]},{"bufferView":13,"byteOffset":0,"count":22,"componentType":5126,"type":"VEC2"},{"bufferView":14,"byteOffset":0,"count":120,"componentType":5125,"type":"SCALAR"},{"bufferView":15,"byteOffset":0,"count":18,"componentType":5126,"type":"VEC3","min":[0.032003998756408691,0.019304001703858376,0],"max":[0.042672000825405121,0.023368000984191895,0.0055880001746118069]},{"bufferView":16,"byteOffset":0,"count":18,"componentType":5126,"type":"VEC2"},{"bufferView":17,"byteOffset":0,"count":96,"componentType":5125,"type":"SCALAR"},{"bufferView":18,"byteOffset":0,"count":18,"componentType":5126,"type":"VEC3","min":[0,0.019304001703858376,0],"max":[0.010413998737931252,0.023368000984191895,0.0055880001746118069]},{"bufferView":19,"byteOffset":0,"count":18,"componentType":5126,"type":"VEC2"},{"bufferView":20,"byteOffset":0,"count":96,"componentType":5125,"type":"SCALAR"},{"bufferView":21,"byteOffset":0,"count":22,"componentType":5126,"type":"VEC3","min":[0.030733997002243996,0.025653999298810959,0],"max":[0.040131997317075729,0.033020000904798508,0.0055880001746118069]},{"bufferView":22,"byteOffset":0,"count":22,"componentType":5126,"type":"VEC2"},{"bufferView":23,"byteOffset":0,"count":120,"componentType":5125,"type":"SCALAR"},{"bufferView":24,"byteOffset":0,"count":20,"componentType":5126,"type":"VEC3","min":[0.0027939998544752598,0.025907998904585838,0],"max":[0.011938000097870827,0.033020000904798508,0.0055880001746118069]},{"bufferView":25,"byteOffset":0,"count":20,"componentType":5126,"type":"VEC2"},{"bufferView":26,"byteOffset":0,"count":108,"componentType":5125,"type":"SCALAR"},{"bufferView":27,"byteOffset":0,"count":20,"componentType":5126,"type":"VEC3","min":[0.025907998904585838,0.030480001121759415,0],"max":[0.033019997179508209,0.040132001042366028,0.0055880001746118069]},{"bufferView":28,"byteOffset":0,"count":20,"componentType":5126,"type":"VEC2"},{"bufferView":29,"byteOffset":0,"count":108,"componentType":5125,"type":"SCALAR"},{"bufferView":30,"byteOffset":0,"count":22,"componentType":5126,"type":"VEC3","min":[0.0099059995263814926,0.030480001121759415,0],"max":[0.016764000058174133,0.040132001042366028,0.0055880001746118069]},{"bufferView":31,"byteOffset":0,"count":22,"componentType":5126,"type":"VEC2"},{"bufferView":32,"byteOffset":0,"count":120,"componentType":5125,"type":"SCALAR"},{"bufferView":33,"byteOffset":0,"count":18,"componentType":5126,"type":"VEC3","min":[0.019303997978568077,0.032258003950119019,0],"max":[0.023367999121546745,0.042672000825405121,0.0055880001746118069]},{"bufferView":34,"byteOffset":0,"count":18,"componentType":5126,"type":"VEC2"},{"bufferView":35,"byteOffset":0,"count":96,"componentType":5125,"type":"SCALAR"}],"bufferViews":[{"buffer":0,"byteOffset":0,"byteLength":240,"byteStride":12,"target":34962},{"buffer":0,"byteOffset":240,"byteLength":160,"byteStride":8,"target":34962},{"buffer":0,"byteOffset":400,"byteLength":432,"target":34963},{"buffer":0,"byteOffset":832,"byteLength":264,"byteStride":12,"target":34962},{"buffer":0,"byteOffset":1096,"byteLength":176,"byteStride":8,"target":34962},{"buffer":0,"byteOffset":1272,"byteLength":480,"target":34963},{"buffer":0,"byteOffset":1752,"byteLength":264,"byteStride":12,"target":34962},{"buffer":0,"byteOffset":2016,"byteLength":176,"byteStride":8,"target":34962},{"buffer":0,"byteOffset":2192,"byteLength":480,"target":34963},{"buffer":0,"byteOffset":2672,"byteLength":240,"byteStride":12,"target":34962},{"buffer":0,"byteOffset":2912,"byteLength":160,"byteStride":8,"target":34962},{"buffer":0,"byteOffset":3072,"byteLength":432,"target":34963},{"buffer":0,"byteOffset":3504,"byteLength":264,"byteStride":12,"target":34962},{"buffer":0,"byteOffset":3768,"byteLength":176,"byteStride":8,"target":34962},{"buffer":0,"byteOffset":3944,"byteLength":480,"target":34963},{"buffer":0,"byteOffset":4424,"byteLength":216,"byteStride":12,"target":34962},{"buffer":0,"byteOffset":4640,"byteLength":144,"byteStride":8,"target":34962},{"buffer":0,"byteOffset":4784,"byteLength":384,"target":34963},{"buffer":0,"byteOffset":5168,"byteLength":216,"byteStride":12,"target":34962},{"buffer":0,"byteOffset":5384,"byteLength":144,"byteStride":8,"target":34962},{"buffer":0,"byteOffset":5528,"byteLength":384,"target":34963},{"buffer":0,"byteOffset":5912,"byteLength":264,"byteStride":12,"target":34962},{"buffer":0,"byteOffset":6176,"byteLength":176,"byteStride":8,"target":34962},{"buffer":0,"byteOffset":6352,"byteLength":480,"target":34963},{"buffer":0,"byteOffset":6832,"byteLength":240,"byteStride":12,"target":34962},{"buffer":0,"byteOffset":7072,"byteLength":160,"byteStride":8,"target":34962},{"buffer":0,"byteOffset":7232,"byteLength":432,"target":34963},{"buffer":0,"byteOffset":7664,"byteLength":240,"byteStride":12,"target":34962},{"buffer":0,"byteOffset":7904,"byteLength":160,"byteStride":8,"target":34962},{"buffer":0,"byteOffset":8064,"byteLength":432,"target":34963},{"buffer":0,"byteOffset":8496,"byteLength":264,"byteStride":12,"target":34962},{"buffer":0,"byteOffset":8760,"byteLength":176,"byteStride":8,"target":34962},{"buffer":0,"byteOffset":8936,"byteLength":480,"target":34963},{"buffer":0,"byteOffset":9416,"byteLength":216,"byteStride":12,"target":34962},{"buffer":0,"byteOffset":9632,"byteLength":144,"byteStride":8,"target":34962},{"buffer":0,"byteOffset":9776,"byteLength":384,"target":34963}],"buffers":[{"byteLength":10160,"uri":"loading.bin"}]}